<?xml version="1.0" encoding="utf-8"?>
<!-- Generator: Adobe Illustrator 19.2.1, SVG Export Plug-In . SVG Version: 6.00 Build 0)  -->
<svg version="1.1" id="Layer_1" xmlns="http://www.w3.org/2000/svg" xmlns:xlink="http://www.w3.org/1999/xlink" x="0px" y="0px"
	 viewBox="0 0 23 23" style="enable-background:new 0 0 23 23;" xml:space="preserve">
<style type="text/css">
	.st0{fill:#B5B5B5;}
</style>
<path class="st0" d="M3,0h17c1.6,0,3,1.4,3,3v17c0,1.6-1.4,3-3,3H3c-1.6,0-3-1.4-3-3V3C0,1.3,1.4,0,3,0z M21,3c0-0.5-0.5-1-1-1H3
	C2.5,2,2,2.5,2,3v17c0,0.5,0.5,1,1,1h17c0.5,0,1-0.5,1-1V3z"/>
</svg>
