
<svg width="25" height="20" fill="none" xmlns="http://www.w3.org/2000/svg">
<path fill-rule="evenodd" clip-rule="evenodd" d="M12.2,20.8c-0.4,0-0.8-0.2-1.1-0.5l-7.8-7.8c-0.3-0.3-0.5-0.7-0.5-1.1s0.2-0.8,0.5-1.1l2.8-2.8
	C6.5,7.2,6.9,7,7.3,7s0.8,0.2,1.1,0.5l3.8,3.8l10-10c0.3-0.3,0.7-0.5,1.1-0.5c0.4,0,0.8,0.2,1.1,0.5l2.8,2.8c0.6,0.6,0.6,1.6,0,2.2
	L13.3,20.3C13,20.6,12.7,20.8,12.2,20.8z" fill="#FFFFFF"/>
<path fill-rule="evenodd" clip-rule="evenodd" d="M12.2,19.8c-0.2,0-0.3-0.1-0.4-0.2l-7.8-7.8c-0.1-0.1-0.2-0.3-0.2-0.4s0.1-0.3,0.2-0.4l2.8-2.8
	C7,8.1,7.1,8,7.3,8s0.3,0.1,0.4,0.2l4.6,4.6L22.9,2c0.1-0.1,0.3-0.2,0.4-0.2l0,0c0.2,0,0.3,0.1,0.4,0.2l2.8,2.8
	c0.2,0.2,0.2,0.6,0,0.8L12.6,19.6C12.5,19.7,12.4,19.8,12.2,19.8z" fill="#FFFFFF"/>
<path fill-rule="evenodd" clip-rule="evenodd" d="M12.2,20.2c-0.3,0-0.5-0.1-0.7-0.3l-7.8-7.8c-0.2-0.2-0.3-0.4-0.3-0.7s0.1-0.5,0.3-0.7l2.8-2.8
	C6.8,7.7,7,7.6,7.3,7.6S7.8,7.7,8,7.9l4.2,4.2L22.6,1.7c0.2-0.2,0.4-0.3,0.7-0.3l0,0c0.3,0,0.5,0.1,0.7,0.3l2.8,2.8
	c0.4,0.4,0.4,1,0,1.4L12.9,19.9C12.8,20.1,12.5,20.2,12.2,20.2z" fill="#FFFFFF"/>
<path fill-rule="evenodd" clip-rule="evenodd" d="M7.3,8.6l-2.8,2.8l7.8,7.8L26.2,5.3l-2.8-2.8L12.2,13.5L7.3,8.6z" fill="#B5B5B5"/>
</svg>
